<mxfile host="app.diagrams.net" modified="2023-03-13T11:07:09.275Z" agent="5.0 (Windows NT 10.0; Win64; x64) AppleWebKit/537.36 (KHTML, like Gecko) Chrome/110.0.0.0 Safari/537.36" etag="JDK271ZMi0xiEq02DoCV" version="21.0.6" type="github">
  <diagram name="第 1 页" id="44bPekrAz7fHFl8u7Ph2">
    <mxGraphModel dx="2049" dy="1157" grid="1" gridSize="10" guides="1" tooltips="1" connect="1" arrows="1" fold="1" page="1" pageScale="1" pageWidth="827" pageHeight="1169" math="0" shadow="0">
      <root>
        <mxCell id="0" />
        <mxCell id="1" parent="0" />
        <mxCell id="IvDMqbEkHvX700NU1U3D-21" value="" style="group;fillColor=#fad9d5;strokeColor=#ae4132;rounded=1;shadow=1;" vertex="1" connectable="0" parent="1">
          <mxGeometry x="70" y="300" width="170" height="140" as="geometry" />
        </mxCell>
        <mxCell id="IvDMqbEkHvX700NU1U3D-17" value="&lt;font style=&quot;font-size: 20px;&quot;&gt;Start ResBlock&lt;/font&gt;" style="rounded=1;whiteSpace=wrap;html=1;container=0;fillColor=#b1ddf0;strokeColor=#10739e;shadow=1;" vertex="1" parent="IvDMqbEkHvX700NU1U3D-21">
          <mxGeometry width="170" height="35" as="geometry" />
        </mxCell>
        <mxCell id="IvDMqbEkHvX700NU1U3D-18" value="&lt;font style=&quot;font-size: 20px;&quot;&gt;Middle ResBlock&lt;/font&gt;" style="rounded=1;whiteSpace=wrap;html=1;container=0;fillColor=#fad7ac;strokeColor=#b46504;fillStyle=auto;shadow=1;" vertex="1" parent="IvDMqbEkHvX700NU1U3D-21">
          <mxGeometry y="35" width="170" height="35" as="geometry" />
        </mxCell>
        <mxCell id="IvDMqbEkHvX700NU1U3D-19" value="&lt;font style=&quot;font-size: 20px;&quot;&gt;End ResBlock&lt;/font&gt;" style="rounded=1;whiteSpace=wrap;html=1;container=0;fillColor=#fad9d5;strokeColor=#ae4132;shadow=1;" vertex="1" parent="IvDMqbEkHvX700NU1U3D-21">
          <mxGeometry y="105" width="170" height="35" as="geometry" />
        </mxCell>
        <mxCell id="IvDMqbEkHvX700NU1U3D-20" value="&lt;font style=&quot;font-size: 20px;&quot;&gt;Middle ResBlock&lt;/font&gt;" style="rounded=1;whiteSpace=wrap;html=1;container=0;fillColor=#fad7ac;strokeColor=#b46504;shadow=1;" vertex="1" parent="IvDMqbEkHvX700NU1U3D-21">
          <mxGeometry y="70" width="170" height="35" as="geometry" />
        </mxCell>
        <mxCell id="IvDMqbEkHvX700NU1U3D-31" value="" style="group;fillColor=#fad9d5;strokeColor=#ae4132;rounded=1;shadow=1;" vertex="1" connectable="0" parent="1">
          <mxGeometry x="70" y="470" width="170" height="210" as="geometry" />
        </mxCell>
        <mxCell id="IvDMqbEkHvX700NU1U3D-25" value="&lt;font style=&quot;font-size: 20px;&quot;&gt;Start ResBlock&lt;/font&gt;" style="rounded=1;whiteSpace=wrap;html=1;container=0;fillColor=#b1ddf0;strokeColor=#10739e;shadow=1;" vertex="1" parent="IvDMqbEkHvX700NU1U3D-31">
          <mxGeometry width="170" height="35" as="geometry" />
        </mxCell>
        <mxCell id="IvDMqbEkHvX700NU1U3D-26" value="&lt;font style=&quot;font-size: 20px;&quot;&gt;Middle ResBlock&lt;/font&gt;" style="rounded=1;whiteSpace=wrap;html=1;container=0;fillColor=#fad7ac;strokeColor=#b46504;shadow=1;" vertex="1" parent="IvDMqbEkHvX700NU1U3D-31">
          <mxGeometry y="35" width="170" height="35" as="geometry" />
        </mxCell>
        <mxCell id="IvDMqbEkHvX700NU1U3D-27" value="&lt;font style=&quot;font-size: 20px;&quot;&gt;End ResBlock&lt;/font&gt;" style="rounded=1;whiteSpace=wrap;html=1;container=0;fillColor=#fad9d5;strokeColor=#ae4132;shadow=1;" vertex="1" parent="IvDMqbEkHvX700NU1U3D-31">
          <mxGeometry y="175" width="170" height="35" as="geometry" />
        </mxCell>
        <mxCell id="IvDMqbEkHvX700NU1U3D-28" value="&lt;font style=&quot;font-size: 20px;&quot;&gt;Middle ResBlock&lt;/font&gt;" style="rounded=1;whiteSpace=wrap;html=1;container=0;fillColor=#fad7ac;strokeColor=#b46504;shadow=1;" vertex="1" parent="IvDMqbEkHvX700NU1U3D-31">
          <mxGeometry y="70" width="170" height="35" as="geometry" />
        </mxCell>
        <mxCell id="IvDMqbEkHvX700NU1U3D-29" value="&lt;font style=&quot;font-size: 20px;&quot;&gt;Middle ResBlock&lt;/font&gt;" style="rounded=1;whiteSpace=wrap;html=1;container=0;fillColor=#fad7ac;strokeColor=#b46504;shadow=1;" vertex="1" parent="IvDMqbEkHvX700NU1U3D-31">
          <mxGeometry y="105" width="170" height="35" as="geometry" />
        </mxCell>
        <mxCell id="IvDMqbEkHvX700NU1U3D-30" value="&lt;font style=&quot;font-size: 20px;&quot;&gt;Middle ResBlock&lt;/font&gt;" style="rounded=1;whiteSpace=wrap;html=1;container=0;fillColor=#fad7ac;strokeColor=#b46504;shadow=1;" vertex="1" parent="IvDMqbEkHvX700NU1U3D-31">
          <mxGeometry y="140" width="170" height="35" as="geometry" />
        </mxCell>
        <mxCell id="IvDMqbEkHvX700NU1U3D-32" value="" style="group;fillColor=#b1ddf0;strokeColor=#10739e;rounded=1;shadow=1;" vertex="1" connectable="0" parent="1">
          <mxGeometry x="70" y="710" width="170" height="105" as="geometry" />
        </mxCell>
        <mxCell id="IvDMqbEkHvX700NU1U3D-33" value="&lt;font style=&quot;font-size: 20px;&quot;&gt;Start ResBlock&lt;/font&gt;" style="rounded=1;whiteSpace=wrap;html=1;container=0;fillColor=#b1ddf0;strokeColor=#10739e;shadow=1;" vertex="1" parent="IvDMqbEkHvX700NU1U3D-32">
          <mxGeometry width="170" height="35" as="geometry" />
        </mxCell>
        <mxCell id="IvDMqbEkHvX700NU1U3D-34" value="&lt;font style=&quot;font-size: 20px;&quot;&gt;Middle ResBlock&lt;/font&gt;" style="rounded=1;whiteSpace=wrap;html=1;container=0;fillColor=#fad7ac;strokeColor=#b46504;shadow=1;" vertex="1" parent="IvDMqbEkHvX700NU1U3D-32">
          <mxGeometry y="35" width="170" height="35" as="geometry" />
        </mxCell>
        <mxCell id="IvDMqbEkHvX700NU1U3D-35" value="&lt;font style=&quot;font-size: 20px;&quot;&gt;End ResBlock&lt;/font&gt;" style="rounded=1;whiteSpace=wrap;html=1;container=0;fillColor=#fad9d5;strokeColor=#ae4132;shadow=1;" vertex="1" parent="IvDMqbEkHvX700NU1U3D-32">
          <mxGeometry y="70" width="170" height="35" as="geometry" />
        </mxCell>
        <mxCell id="IvDMqbEkHvX700NU1U3D-59" style="edgeStyle=orthogonalEdgeStyle;rounded=0;orthogonalLoop=1;jettySize=auto;html=1;entryX=0.5;entryY=0;entryDx=0;entryDy=0;" edge="1" parent="1" source="IvDMqbEkHvX700NU1U3D-36" target="IvDMqbEkHvX700NU1U3D-50">
          <mxGeometry relative="1" as="geometry" />
        </mxCell>
        <mxCell id="IvDMqbEkHvX700NU1U3D-36" value="&lt;font style=&quot;font-size: 20px;&quot;&gt;start stage&lt;/font&gt;" style="rounded=1;whiteSpace=wrap;html=1;fillColor=#1ba1e2;strokeColor=#006EAF;fontColor=#ffffff;shadow=1;" vertex="1" parent="1">
          <mxGeometry x="440" y="140" width="160" height="60" as="geometry" />
        </mxCell>
        <mxCell id="IvDMqbEkHvX700NU1U3D-53" style="rounded=0;orthogonalLoop=1;jettySize=auto;html=1;entryX=1;entryY=0;entryDx=0;entryDy=0;endSize=0;startSize=0;dashed=1;" edge="1" parent="1" source="IvDMqbEkHvX700NU1U3D-37" target="IvDMqbEkHvX700NU1U3D-17">
          <mxGeometry relative="1" as="geometry" />
        </mxCell>
        <mxCell id="IvDMqbEkHvX700NU1U3D-54" style="rounded=0;orthogonalLoop=1;jettySize=auto;html=1;entryX=1;entryY=1;entryDx=0;entryDy=0;exitX=0.006;exitY=0.9;exitDx=0;exitDy=0;exitPerimeter=0;endSize=0;startSize=0;dashed=1;" edge="1" parent="1" source="IvDMqbEkHvX700NU1U3D-37" target="IvDMqbEkHvX700NU1U3D-19">
          <mxGeometry relative="1" as="geometry" />
        </mxCell>
        <mxCell id="IvDMqbEkHvX700NU1U3D-61" style="edgeStyle=orthogonalEdgeStyle;rounded=0;orthogonalLoop=1;jettySize=auto;html=1;exitX=0.5;exitY=1;exitDx=0;exitDy=0;" edge="1" parent="1" source="IvDMqbEkHvX700NU1U3D-37" target="IvDMqbEkHvX700NU1U3D-38">
          <mxGeometry relative="1" as="geometry" />
        </mxCell>
        <mxCell id="IvDMqbEkHvX700NU1U3D-37" value="&lt;font style=&quot;font-size: 20px;&quot;&gt;main stage2&lt;/font&gt;" style="rounded=1;whiteSpace=wrap;html=1;fillColor=#FF8000;fontColor=#ffffff;strokeColor=#3700CC;shadow=1;" vertex="1" parent="1">
          <mxGeometry x="440" y="360" width="160" height="60" as="geometry" />
        </mxCell>
        <mxCell id="IvDMqbEkHvX700NU1U3D-55" style="rounded=0;orthogonalLoop=1;jettySize=auto;html=1;entryX=1;entryY=0.25;entryDx=0;entryDy=0;exitX=0;exitY=0.25;exitDx=0;exitDy=0;startSize=0;endSize=0;dashed=1;" edge="1" parent="1" source="IvDMqbEkHvX700NU1U3D-38" target="IvDMqbEkHvX700NU1U3D-25">
          <mxGeometry relative="1" as="geometry" />
        </mxCell>
        <mxCell id="IvDMqbEkHvX700NU1U3D-56" style="rounded=0;orthogonalLoop=1;jettySize=auto;html=1;exitX=0;exitY=0.75;exitDx=0;exitDy=0;entryX=1;entryY=1;entryDx=0;entryDy=0;endSize=0;startSize=0;dashed=1;" edge="1" parent="1" source="IvDMqbEkHvX700NU1U3D-38" target="IvDMqbEkHvX700NU1U3D-27">
          <mxGeometry relative="1" as="geometry" />
        </mxCell>
        <mxCell id="IvDMqbEkHvX700NU1U3D-62" style="edgeStyle=orthogonalEdgeStyle;rounded=0;orthogonalLoop=1;jettySize=auto;html=1;exitX=0.5;exitY=1;exitDx=0;exitDy=0;" edge="1" parent="1" source="IvDMqbEkHvX700NU1U3D-38" target="IvDMqbEkHvX700NU1U3D-39">
          <mxGeometry relative="1" as="geometry" />
        </mxCell>
        <mxCell id="IvDMqbEkHvX700NU1U3D-38" value="&lt;font color=&quot;#ffffff&quot; style=&quot;font-size: 20px;&quot;&gt;main stage3&lt;/font&gt;" style="rounded=1;whiteSpace=wrap;html=1;fillColor=#FF8000;shadow=1;" vertex="1" parent="1">
          <mxGeometry x="440" y="480" width="160" height="60" as="geometry" />
        </mxCell>
        <mxCell id="IvDMqbEkHvX700NU1U3D-57" style="rounded=0;orthogonalLoop=1;jettySize=auto;html=1;entryX=1;entryY=0;entryDx=0;entryDy=0;exitX=0;exitY=0.15;exitDx=0;exitDy=0;exitPerimeter=0;endSize=0;startSize=0;dashed=1;" edge="1" parent="1" source="IvDMqbEkHvX700NU1U3D-39" target="IvDMqbEkHvX700NU1U3D-33">
          <mxGeometry relative="1" as="geometry" />
        </mxCell>
        <mxCell id="IvDMqbEkHvX700NU1U3D-58" style="rounded=0;orthogonalLoop=1;jettySize=auto;html=1;entryX=1;entryY=1;entryDx=0;entryDy=0;exitX=0;exitY=0.75;exitDx=0;exitDy=0;endSize=0;startSize=0;dashed=1;" edge="1" parent="1" source="IvDMqbEkHvX700NU1U3D-39" target="IvDMqbEkHvX700NU1U3D-35">
          <mxGeometry relative="1" as="geometry" />
        </mxCell>
        <mxCell id="IvDMqbEkHvX700NU1U3D-63" style="edgeStyle=orthogonalEdgeStyle;rounded=0;orthogonalLoop=1;jettySize=auto;html=1;exitX=0.5;exitY=1;exitDx=0;exitDy=0;entryX=0.5;entryY=0;entryDx=0;entryDy=0;" edge="1" parent="1" source="IvDMqbEkHvX700NU1U3D-39" target="IvDMqbEkHvX700NU1U3D-41">
          <mxGeometry relative="1" as="geometry" />
        </mxCell>
        <mxCell id="IvDMqbEkHvX700NU1U3D-39" value="&lt;font color=&quot;#ffffff&quot; style=&quot;font-size: 20px;&quot;&gt;main stage4&lt;/font&gt;" style="rounded=1;whiteSpace=wrap;html=1;fillColor=#FF8000;shadow=1;" vertex="1" parent="1">
          <mxGeometry x="440" y="600" width="160" height="60" as="geometry" />
        </mxCell>
        <mxCell id="IvDMqbEkHvX700NU1U3D-41" value="&lt;font style=&quot;font-size: 20px;&quot;&gt;end stage&lt;/font&gt;" style="rounded=1;whiteSpace=wrap;html=1;fillColor=#d80073;fontColor=#ffffff;strokeColor=#A50040;shadow=1;" vertex="1" parent="1">
          <mxGeometry x="440" y="750" width="160" height="60" as="geometry" />
        </mxCell>
        <mxCell id="IvDMqbEkHvX700NU1U3D-42" value="" style="group;rounded=1;shadow=1;" vertex="1" connectable="0" parent="1">
          <mxGeometry x="70" y="160" width="170" height="105" as="geometry" />
        </mxCell>
        <mxCell id="IvDMqbEkHvX700NU1U3D-1" value="&lt;font style=&quot;font-size: 20px;&quot;&gt;Start ResBlock&lt;/font&gt;" style="rounded=1;whiteSpace=wrap;html=1;container=0;fillColor=#b1ddf0;strokeColor=#10739e;shadow=1;" vertex="1" parent="IvDMqbEkHvX700NU1U3D-42">
          <mxGeometry width="170" height="35" as="geometry" />
        </mxCell>
        <mxCell id="IvDMqbEkHvX700NU1U3D-4" value="&lt;font style=&quot;font-size: 20px;&quot;&gt;Middle ResBlock&lt;/font&gt;" style="rounded=1;whiteSpace=wrap;html=1;container=0;fillColor=#fad7ac;strokeColor=#b46504;shadow=1;" vertex="1" parent="IvDMqbEkHvX700NU1U3D-42">
          <mxGeometry y="35" width="170" height="35" as="geometry" />
        </mxCell>
        <mxCell id="IvDMqbEkHvX700NU1U3D-12" value="&lt;font style=&quot;font-size: 20px;&quot;&gt;End ResBlock&lt;/font&gt;" style="rounded=1;whiteSpace=wrap;html=1;container=0;fillColor=#fad9d5;strokeColor=#ae4132;shadow=1;" vertex="1" parent="IvDMqbEkHvX700NU1U3D-42">
          <mxGeometry y="70" width="170" height="35" as="geometry" />
        </mxCell>
        <mxCell id="IvDMqbEkHvX700NU1U3D-51" style="orthogonalLoop=1;jettySize=auto;html=1;entryX=1;entryY=0;entryDx=0;entryDy=0;rounded=0;endSize=0;startSize=0;dashed=1;" edge="1" parent="1" source="IvDMqbEkHvX700NU1U3D-50" target="IvDMqbEkHvX700NU1U3D-1">
          <mxGeometry relative="1" as="geometry" />
        </mxCell>
        <mxCell id="IvDMqbEkHvX700NU1U3D-52" style="rounded=0;orthogonalLoop=1;jettySize=auto;html=1;entryX=1;entryY=0.75;entryDx=0;entryDy=0;startSize=0;endSize=0;dashed=1;" edge="1" parent="1" source="IvDMqbEkHvX700NU1U3D-50" target="IvDMqbEkHvX700NU1U3D-12">
          <mxGeometry relative="1" as="geometry" />
        </mxCell>
        <mxCell id="IvDMqbEkHvX700NU1U3D-60" style="edgeStyle=orthogonalEdgeStyle;rounded=0;orthogonalLoop=1;jettySize=auto;html=1;entryX=0.5;entryY=0;entryDx=0;entryDy=0;" edge="1" parent="1" source="IvDMqbEkHvX700NU1U3D-50" target="IvDMqbEkHvX700NU1U3D-37">
          <mxGeometry relative="1" as="geometry" />
        </mxCell>
        <mxCell id="IvDMqbEkHvX700NU1U3D-50" value="&lt;font color=&quot;#ffffff&quot; style=&quot;font-size: 20px;&quot;&gt;main stage1&lt;/font&gt;" style="rounded=1;whiteSpace=wrap;html=1;fillColor=#FF8000;shadow=1;" vertex="1" parent="1">
          <mxGeometry x="440" y="230" width="160" height="60" as="geometry" />
        </mxCell>
        <mxCell id="IvDMqbEkHvX700NU1U3D-64" value="&lt;font style=&quot;font-size: 20px;&quot;&gt;ResStage50&lt;/font&gt;" style="text;whiteSpace=wrap;html=1;fillColor=#ffff88;strokeColor=none;rounded=1;shadow=1;align=center;" vertex="1" parent="1">
          <mxGeometry x="280" y="860" width="140" height="30" as="geometry" />
        </mxCell>
        <mxCell id="IvDMqbEkHvX700NU1U3D-65" style="edgeStyle=orthogonalEdgeStyle;rounded=0;orthogonalLoop=1;jettySize=auto;html=1;exitX=0.5;exitY=1;exitDx=0;exitDy=0;" edge="1" parent="1" source="IvDMqbEkHvX700NU1U3D-64" target="IvDMqbEkHvX700NU1U3D-64">
          <mxGeometry relative="1" as="geometry" />
        </mxCell>
        <mxCell id="IvDMqbEkHvX700NU1U3D-66" value="" style="group;fillColor=#fad7ac;strokeColor=#b46504;rounded=1;shadow=1;fontSize=20;labelBackgroundColor=none;align=center;" vertex="1" connectable="0" parent="1">
          <mxGeometry x="1100" y="290" width="170" height="140" as="geometry" />
        </mxCell>
        <mxCell id="IvDMqbEkHvX700NU1U3D-67" value="ResBlock" style="rounded=1;whiteSpace=wrap;html=1;container=0;fillColor=#e1d5e7;strokeColor=#9673a6;shadow=1;fontSize=20;labelBackgroundColor=none;align=center;" vertex="1" parent="IvDMqbEkHvX700NU1U3D-66">
          <mxGeometry width="170" height="35" as="geometry" />
        </mxCell>
        <mxCell id="IvDMqbEkHvX700NU1U3D-68" value="ResBlock" style="rounded=1;whiteSpace=wrap;html=1;container=0;fillColor=#fad7ac;strokeColor=#b46504;fillStyle=auto;shadow=1;fontSize=20;labelBackgroundColor=none;align=center;" vertex="1" parent="IvDMqbEkHvX700NU1U3D-66">
          <mxGeometry y="35" width="170" height="35" as="geometry" />
        </mxCell>
        <mxCell id="IvDMqbEkHvX700NU1U3D-69" value="ResBlock" style="rounded=1;whiteSpace=wrap;html=1;container=0;fillColor=#e1d5e7;strokeColor=#9673a6;shadow=1;fontSize=20;labelBackgroundColor=none;align=center;" vertex="1" parent="IvDMqbEkHvX700NU1U3D-66">
          <mxGeometry y="105" width="170" height="35" as="geometry" />
        </mxCell>
        <mxCell id="IvDMqbEkHvX700NU1U3D-70" value="ResBlock" style="rounded=1;whiteSpace=wrap;html=1;container=0;fillColor=#fad7ac;strokeColor=#b46504;shadow=1;fontSize=20;labelBackgroundColor=none;align=center;" vertex="1" parent="IvDMqbEkHvX700NU1U3D-66">
          <mxGeometry y="70" width="170" height="35" as="geometry" />
        </mxCell>
        <mxCell id="IvDMqbEkHvX700NU1U3D-71" value="" style="group;fillColor=#fad7ac;strokeColor=#b46504;rounded=1;shadow=1;fontSize=20;labelBackgroundColor=none;align=center;" vertex="1" connectable="0" parent="1">
          <mxGeometry x="1100" y="460" width="170" height="210" as="geometry" />
        </mxCell>
        <mxCell id="IvDMqbEkHvX700NU1U3D-72" value="ResBlock" style="rounded=1;whiteSpace=wrap;html=1;container=0;fillColor=#e1d5e7;strokeColor=#9673a6;shadow=1;fontSize=20;labelBackgroundColor=none;align=center;" vertex="1" parent="IvDMqbEkHvX700NU1U3D-71">
          <mxGeometry width="170" height="35" as="geometry" />
        </mxCell>
        <mxCell id="IvDMqbEkHvX700NU1U3D-73" value="ResBlock" style="rounded=1;whiteSpace=wrap;html=1;container=0;fillColor=#fad7ac;strokeColor=#b46504;shadow=1;fontSize=20;labelBackgroundColor=none;align=center;" vertex="1" parent="IvDMqbEkHvX700NU1U3D-71">
          <mxGeometry y="35" width="170" height="35" as="geometry" />
        </mxCell>
        <mxCell id="IvDMqbEkHvX700NU1U3D-74" value="ResBlock" style="rounded=1;whiteSpace=wrap;html=1;container=0;fillColor=#e1d5e7;strokeColor=#9673a6;shadow=1;fontSize=20;labelBackgroundColor=none;align=center;" vertex="1" parent="IvDMqbEkHvX700NU1U3D-71">
          <mxGeometry y="175" width="170" height="35" as="geometry" />
        </mxCell>
        <mxCell id="IvDMqbEkHvX700NU1U3D-75" value="ResBlock" style="rounded=1;whiteSpace=wrap;html=1;container=0;fillColor=#fad7ac;strokeColor=#b46504;shadow=1;fontSize=20;labelBackgroundColor=none;align=center;" vertex="1" parent="IvDMqbEkHvX700NU1U3D-71">
          <mxGeometry y="70" width="170" height="35" as="geometry" />
        </mxCell>
        <mxCell id="IvDMqbEkHvX700NU1U3D-76" value="ResBlock" style="rounded=1;whiteSpace=wrap;html=1;container=0;fillColor=#fad7ac;strokeColor=#b46504;shadow=1;fontSize=20;labelBackgroundColor=none;align=center;" vertex="1" parent="IvDMqbEkHvX700NU1U3D-71">
          <mxGeometry y="105" width="170" height="35" as="geometry" />
        </mxCell>
        <mxCell id="IvDMqbEkHvX700NU1U3D-77" value="ResBlock" style="rounded=1;whiteSpace=wrap;html=1;container=0;fillColor=#fad7ac;strokeColor=#b46504;shadow=1;fontSize=20;labelBackgroundColor=none;align=center;" vertex="1" parent="IvDMqbEkHvX700NU1U3D-71">
          <mxGeometry y="140" width="170" height="35" as="geometry" />
        </mxCell>
        <mxCell id="IvDMqbEkHvX700NU1U3D-78" value="" style="group;fillColor=#fad7ac;strokeColor=#b46504;rounded=1;shadow=1;fontSize=20;labelBackgroundColor=none;align=center;" vertex="1" connectable="0" parent="1">
          <mxGeometry x="1100" y="700" width="170" height="105" as="geometry" />
        </mxCell>
        <mxCell id="IvDMqbEkHvX700NU1U3D-79" value="ResBlock" style="rounded=1;whiteSpace=wrap;html=1;container=0;fillColor=#e1d5e7;strokeColor=#9673a6;shadow=1;fontSize=20;labelBackgroundColor=none;align=center;" vertex="1" parent="IvDMqbEkHvX700NU1U3D-78">
          <mxGeometry width="170" height="35" as="geometry" />
        </mxCell>
        <mxCell id="IvDMqbEkHvX700NU1U3D-80" value="ResBlock" style="rounded=1;whiteSpace=wrap;html=1;container=0;fillColor=#fad7ac;strokeColor=#b46504;shadow=1;fontSize=20;labelBackgroundColor=none;align=center;" vertex="1" parent="IvDMqbEkHvX700NU1U3D-78">
          <mxGeometry y="35" width="170" height="35" as="geometry" />
        </mxCell>
        <mxCell id="IvDMqbEkHvX700NU1U3D-81" value="ResBlock" style="rounded=1;whiteSpace=wrap;html=1;container=0;fillColor=#e1d5e7;strokeColor=#9673a6;shadow=1;fontSize=20;labelBackgroundColor=none;align=center;" vertex="1" parent="IvDMqbEkHvX700NU1U3D-78">
          <mxGeometry y="70" width="170" height="35" as="geometry" />
        </mxCell>
        <mxCell id="IvDMqbEkHvX700NU1U3D-82" style="edgeStyle=orthogonalEdgeStyle;rounded=0;orthogonalLoop=1;jettySize=auto;html=1;entryX=0.5;entryY=0;entryDx=0;entryDy=0;" edge="1" parent="1" source="IvDMqbEkHvX700NU1U3D-83" target="IvDMqbEkHvX700NU1U3D-104">
          <mxGeometry relative="1" as="geometry" />
        </mxCell>
        <mxCell id="IvDMqbEkHvX700NU1U3D-83" value="&lt;font style=&quot;font-size: 20px;&quot;&gt;start stage&lt;/font&gt;" style="rounded=1;whiteSpace=wrap;html=1;fillColor=#1ba1e2;strokeColor=#006EAF;fontColor=#ffffff;shadow=1;" vertex="1" parent="1">
          <mxGeometry x="1470" y="130" width="160" height="60" as="geometry" />
        </mxCell>
        <mxCell id="IvDMqbEkHvX700NU1U3D-84" style="rounded=0;orthogonalLoop=1;jettySize=auto;html=1;entryX=1;entryY=0;entryDx=0;entryDy=0;endSize=0;startSize=0;dashed=1;" edge="1" parent="1" source="IvDMqbEkHvX700NU1U3D-87" target="IvDMqbEkHvX700NU1U3D-67">
          <mxGeometry relative="1" as="geometry" />
        </mxCell>
        <mxCell id="IvDMqbEkHvX700NU1U3D-85" style="rounded=0;orthogonalLoop=1;jettySize=auto;html=1;entryX=1;entryY=1;entryDx=0;entryDy=0;exitX=0.006;exitY=0.9;exitDx=0;exitDy=0;exitPerimeter=0;endSize=0;startSize=0;dashed=1;" edge="1" parent="1" source="IvDMqbEkHvX700NU1U3D-87" target="IvDMqbEkHvX700NU1U3D-69">
          <mxGeometry relative="1" as="geometry" />
        </mxCell>
        <mxCell id="IvDMqbEkHvX700NU1U3D-86" style="edgeStyle=orthogonalEdgeStyle;rounded=0;orthogonalLoop=1;jettySize=auto;html=1;exitX=0.5;exitY=1;exitDx=0;exitDy=0;" edge="1" parent="1" source="IvDMqbEkHvX700NU1U3D-87" target="IvDMqbEkHvX700NU1U3D-91">
          <mxGeometry relative="1" as="geometry" />
        </mxCell>
        <mxCell id="IvDMqbEkHvX700NU1U3D-87" value="&lt;font style=&quot;font-size: 20px;&quot;&gt;stage2&lt;/font&gt;" style="rounded=1;whiteSpace=wrap;html=1;fillColor=#FF8000;fontColor=#ffffff;strokeColor=#3700CC;shadow=1;" vertex="1" parent="1">
          <mxGeometry x="1470" y="350" width="160" height="60" as="geometry" />
        </mxCell>
        <mxCell id="IvDMqbEkHvX700NU1U3D-88" style="rounded=0;orthogonalLoop=1;jettySize=auto;html=1;entryX=1;entryY=0.25;entryDx=0;entryDy=0;exitX=0;exitY=0.25;exitDx=0;exitDy=0;startSize=0;endSize=0;dashed=1;" edge="1" parent="1" source="IvDMqbEkHvX700NU1U3D-91" target="IvDMqbEkHvX700NU1U3D-72">
          <mxGeometry relative="1" as="geometry" />
        </mxCell>
        <mxCell id="IvDMqbEkHvX700NU1U3D-89" style="rounded=0;orthogonalLoop=1;jettySize=auto;html=1;exitX=0;exitY=0.75;exitDx=0;exitDy=0;entryX=1;entryY=1;entryDx=0;entryDy=0;endSize=0;startSize=0;dashed=1;" edge="1" parent="1" source="IvDMqbEkHvX700NU1U3D-91" target="IvDMqbEkHvX700NU1U3D-74">
          <mxGeometry relative="1" as="geometry" />
        </mxCell>
        <mxCell id="IvDMqbEkHvX700NU1U3D-90" style="edgeStyle=orthogonalEdgeStyle;rounded=0;orthogonalLoop=1;jettySize=auto;html=1;exitX=0.5;exitY=1;exitDx=0;exitDy=0;" edge="1" parent="1" source="IvDMqbEkHvX700NU1U3D-91" target="IvDMqbEkHvX700NU1U3D-95">
          <mxGeometry relative="1" as="geometry" />
        </mxCell>
        <mxCell id="IvDMqbEkHvX700NU1U3D-91" value="&lt;font color=&quot;#ffffff&quot; style=&quot;font-size: 20px;&quot;&gt;stage3&lt;/font&gt;" style="rounded=1;whiteSpace=wrap;html=1;fillColor=#FF8000;shadow=1;" vertex="1" parent="1">
          <mxGeometry x="1470" y="470" width="160" height="60" as="geometry" />
        </mxCell>
        <mxCell id="IvDMqbEkHvX700NU1U3D-92" style="rounded=0;orthogonalLoop=1;jettySize=auto;html=1;entryX=1;entryY=0;entryDx=0;entryDy=0;exitX=0;exitY=0.15;exitDx=0;exitDy=0;exitPerimeter=0;endSize=0;startSize=0;dashed=1;" edge="1" parent="1" source="IvDMqbEkHvX700NU1U3D-95" target="IvDMqbEkHvX700NU1U3D-79">
          <mxGeometry relative="1" as="geometry" />
        </mxCell>
        <mxCell id="IvDMqbEkHvX700NU1U3D-93" style="rounded=0;orthogonalLoop=1;jettySize=auto;html=1;entryX=1;entryY=1;entryDx=0;entryDy=0;exitX=0;exitY=0.75;exitDx=0;exitDy=0;endSize=0;startSize=0;dashed=1;" edge="1" parent="1" source="IvDMqbEkHvX700NU1U3D-95" target="IvDMqbEkHvX700NU1U3D-81">
          <mxGeometry relative="1" as="geometry" />
        </mxCell>
        <mxCell id="IvDMqbEkHvX700NU1U3D-94" style="edgeStyle=orthogonalEdgeStyle;rounded=0;orthogonalLoop=1;jettySize=auto;html=1;exitX=0.5;exitY=1;exitDx=0;exitDy=0;entryX=0.5;entryY=0;entryDx=0;entryDy=0;" edge="1" parent="1" source="IvDMqbEkHvX700NU1U3D-95" target="IvDMqbEkHvX700NU1U3D-96">
          <mxGeometry relative="1" as="geometry" />
        </mxCell>
        <mxCell id="IvDMqbEkHvX700NU1U3D-95" value="&lt;font color=&quot;#ffffff&quot; style=&quot;font-size: 20px;&quot;&gt;stage4&lt;/font&gt;" style="rounded=1;whiteSpace=wrap;html=1;fillColor=#FF8000;shadow=1;fillStyle=auto;" vertex="1" parent="1">
          <mxGeometry x="1470" y="590" width="160" height="60" as="geometry" />
        </mxCell>
        <mxCell id="IvDMqbEkHvX700NU1U3D-96" value="&lt;font style=&quot;font-size: 20px;&quot;&gt;end stage&lt;/font&gt;" style="rounded=1;whiteSpace=wrap;html=1;fillColor=#d80073;fontColor=#ffffff;strokeColor=#A50040;shadow=1;" vertex="1" parent="1">
          <mxGeometry x="1470" y="740" width="160" height="60" as="geometry" />
        </mxCell>
        <mxCell id="IvDMqbEkHvX700NU1U3D-97" value="" style="group;rounded=1;shadow=1;fontSize=20;labelBackgroundColor=none;align=center;fillColor=#ffe6cc;strokeColor=#d79b00;" vertex="1" connectable="0" parent="1">
          <mxGeometry x="1100" y="150" width="170" height="105" as="geometry" />
        </mxCell>
        <mxCell id="IvDMqbEkHvX700NU1U3D-98" value="ResBlock" style="rounded=1;whiteSpace=wrap;html=1;container=0;fillColor=#e1d5e7;strokeColor=#9673a6;shadow=1;fontSize=20;labelBackgroundColor=none;align=center;" vertex="1" parent="IvDMqbEkHvX700NU1U3D-97">
          <mxGeometry width="170" height="35" as="geometry" />
        </mxCell>
        <mxCell id="IvDMqbEkHvX700NU1U3D-99" value="&lt;font style=&quot;font-size: 20px;&quot;&gt;ResBlock&lt;/font&gt;" style="rounded=1;whiteSpace=wrap;html=1;container=0;fillColor=#fad7ac;strokeColor=#b46504;shadow=1;fontSize=20;labelBackgroundColor=none;align=center;" vertex="1" parent="IvDMqbEkHvX700NU1U3D-97">
          <mxGeometry y="35" width="170" height="35" as="geometry" />
        </mxCell>
        <mxCell id="IvDMqbEkHvX700NU1U3D-100" value="ResBlock" style="rounded=1;whiteSpace=wrap;html=1;container=0;fillColor=#e1d5e7;strokeColor=#9673a6;shadow=1;fontSize=20;labelBackgroundColor=none;align=center;" vertex="1" parent="IvDMqbEkHvX700NU1U3D-97">
          <mxGeometry y="70" width="170" height="35" as="geometry" />
        </mxCell>
        <mxCell id="IvDMqbEkHvX700NU1U3D-101" style="orthogonalLoop=1;jettySize=auto;html=1;entryX=1;entryY=0;entryDx=0;entryDy=0;rounded=0;endSize=0;startSize=0;dashed=1;" edge="1" parent="1" source="IvDMqbEkHvX700NU1U3D-104" target="IvDMqbEkHvX700NU1U3D-98">
          <mxGeometry relative="1" as="geometry" />
        </mxCell>
        <mxCell id="IvDMqbEkHvX700NU1U3D-102" style="rounded=0;orthogonalLoop=1;jettySize=auto;html=1;entryX=1;entryY=0.75;entryDx=0;entryDy=0;startSize=0;endSize=0;dashed=1;" edge="1" parent="1" source="IvDMqbEkHvX700NU1U3D-104" target="IvDMqbEkHvX700NU1U3D-100">
          <mxGeometry relative="1" as="geometry" />
        </mxCell>
        <mxCell id="IvDMqbEkHvX700NU1U3D-103" style="edgeStyle=orthogonalEdgeStyle;rounded=0;orthogonalLoop=1;jettySize=auto;html=1;entryX=0.5;entryY=0;entryDx=0;entryDy=0;" edge="1" parent="1" source="IvDMqbEkHvX700NU1U3D-104" target="IvDMqbEkHvX700NU1U3D-87">
          <mxGeometry relative="1" as="geometry" />
        </mxCell>
        <mxCell id="IvDMqbEkHvX700NU1U3D-104" value="&lt;font color=&quot;#ffffff&quot; style=&quot;font-size: 20px;&quot;&gt;stage1&lt;/font&gt;" style="rounded=1;whiteSpace=wrap;html=1;fillColor=#FF8000;shadow=1;" vertex="1" parent="1">
          <mxGeometry x="1470" y="220" width="160" height="60" as="geometry" />
        </mxCell>
        <mxCell id="IvDMqbEkHvX700NU1U3D-105" value="&lt;font style=&quot;font-size: 20px;&quot;&gt;ResNet50&lt;/font&gt;" style="text;whiteSpace=wrap;html=1;fillColor=#FFFF88;strokeColor=none;rounded=1;shadow=1;align=center;" vertex="1" parent="1">
          <mxGeometry x="1310" y="850" width="140" height="30" as="geometry" />
        </mxCell>
        <mxCell id="IvDMqbEkHvX700NU1U3D-106" style="edgeStyle=orthogonalEdgeStyle;rounded=0;orthogonalLoop=1;jettySize=auto;html=1;exitX=0.5;exitY=1;exitDx=0;exitDy=0;" edge="1" parent="1" source="IvDMqbEkHvX700NU1U3D-105" target="IvDMqbEkHvX700NU1U3D-105">
          <mxGeometry relative="1" as="geometry" />
        </mxCell>
        <mxCell id="IvDMqbEkHvX700NU1U3D-110" value="" style="group;fontSize=14;fillColor=#99CCFF;strokeColor=default;rounded=0;glass=0;shadow=0;container=0;" vertex="1" connectable="0" parent="1">
          <mxGeometry x="870" y="148" width="130" height="96" as="geometry" />
        </mxCell>
        <mxCell id="IvDMqbEkHvX700NU1U3D-111" value="" style="group;fontSize=14;fillColor=#dae8fc;glass=0;strokeColor=#6c8ebf;rounded=1;container=0;shadow=1;" vertex="1" connectable="0" parent="1">
          <mxGeometry x="870" y="280" width="130" height="96" as="geometry" />
        </mxCell>
        <mxCell id="IvDMqbEkHvX700NU1U3D-115" value="" style="group;fontSize=14;fillColor=#dae8fc;strokeColor=#6c8ebf;rounded=1;container=0;shadow=1;" vertex="1" connectable="0" parent="1">
          <mxGeometry x="870" y="460" width="130" height="96" as="geometry" />
        </mxCell>
        <mxCell id="IvDMqbEkHvX700NU1U3D-119" value="" style="group;fontSize=14;fillColor=#dae8fc;strokeColor=#6c8ebf;rounded=1;shadow=1;" vertex="1" connectable="0" parent="1">
          <mxGeometry x="880" y="700" width="130" height="96" as="geometry" />
        </mxCell>
        <mxCell id="IvDMqbEkHvX700NU1U3D-120" value="&lt;font style=&quot;font-size: 14px;&quot;&gt;CONV，1*1，512&lt;/font&gt;" style="rounded=1;whiteSpace=wrap;html=1;align=left;fillColor=#dae8fc;strokeColor=#6c8ebf;glass=0;fontSize=14;shadow=1;" vertex="1" parent="IvDMqbEkHvX700NU1U3D-119">
          <mxGeometry width="130" height="32" as="geometry" />
        </mxCell>
        <mxCell id="IvDMqbEkHvX700NU1U3D-121" value="&lt;font style=&quot;font-size: 14px;&quot;&gt;CONV，3*3，512&lt;/font&gt;" style="rounded=1;whiteSpace=wrap;html=1;align=left;fillColor=#dae8fc;strokeColor=#6c8ebf;glass=0;fontSize=14;shadow=1;" vertex="1" parent="IvDMqbEkHvX700NU1U3D-119">
          <mxGeometry y="32" width="130" height="32" as="geometry" />
        </mxCell>
        <mxCell id="IvDMqbEkHvX700NU1U3D-122" value="&lt;font style=&quot;font-size: 14px;&quot;&gt;CONV，1*1，2048&lt;/font&gt;" style="rounded=1;whiteSpace=wrap;html=1;align=left;fillColor=#dae8fc;strokeColor=#6c8ebf;glass=0;fontSize=14;shadow=1;" vertex="1" parent="IvDMqbEkHvX700NU1U3D-119">
          <mxGeometry y="64" width="130" height="32" as="geometry" />
        </mxCell>
        <mxCell id="IvDMqbEkHvX700NU1U3D-107" value="&lt;font style=&quot;font-size: 14px;&quot;&gt;CONV，1*1，64&lt;/font&gt;" style="rounded=1;whiteSpace=wrap;html=1;align=left;fillColor=#dae8fc;strokeColor=#6c8ebf;glass=0;fontSize=14;shadow=1;" vertex="1" parent="1">
          <mxGeometry x="870" y="148" width="130" height="32" as="geometry" />
        </mxCell>
        <mxCell id="IvDMqbEkHvX700NU1U3D-108" value="&lt;font style=&quot;font-size: 14px;&quot;&gt;CONV，3*3，64&lt;/font&gt;" style="rounded=1;whiteSpace=wrap;html=1;align=left;fillColor=#dae8fc;strokeColor=#6c8ebf;glass=0;fontSize=14;shadow=1;" vertex="1" parent="1">
          <mxGeometry x="870" y="180" width="130" height="32" as="geometry" />
        </mxCell>
        <mxCell id="IvDMqbEkHvX700NU1U3D-109" value="&lt;font style=&quot;font-size: 14px;&quot;&gt;CONV，1*1，256&lt;/font&gt;" style="rounded=1;whiteSpace=wrap;html=1;align=left;fillColor=#dae8fc;strokeColor=#6c8ebf;glass=0;fontSize=14;shadow=1;" vertex="1" parent="1">
          <mxGeometry x="870" y="212" width="130" height="32" as="geometry" />
        </mxCell>
        <mxCell id="IvDMqbEkHvX700NU1U3D-112" value="&lt;font style=&quot;font-size: 14px;&quot;&gt;CONV，1*1，128&lt;/font&gt;" style="rounded=1;whiteSpace=wrap;html=1;align=left;fillColor=#dae8fc;strokeColor=#6c8ebf;glass=0;fontSize=14;shadow=1;" vertex="1" parent="1">
          <mxGeometry x="870" y="280" width="130" height="32" as="geometry" />
        </mxCell>
        <mxCell id="IvDMqbEkHvX700NU1U3D-113" value="&lt;font style=&quot;font-size: 14px;&quot;&gt;CONV，3*3，256&lt;/font&gt;" style="rounded=1;whiteSpace=wrap;html=1;align=left;fillColor=#dae8fc;strokeColor=#6c8ebf;glass=0;fontSize=14;shadow=1;" vertex="1" parent="1">
          <mxGeometry x="870" y="312" width="130" height="32" as="geometry" />
        </mxCell>
        <mxCell id="IvDMqbEkHvX700NU1U3D-114" value="&lt;font style=&quot;font-size: 14px;&quot;&gt;CONV，1*1，512&lt;/font&gt;" style="rounded=1;whiteSpace=wrap;html=1;align=left;fillColor=#dae8fc;strokeColor=#6c8ebf;glass=0;fontSize=14;shadow=1;" vertex="1" parent="1">
          <mxGeometry x="870" y="344" width="130" height="32" as="geometry" />
        </mxCell>
        <mxCell id="IvDMqbEkHvX700NU1U3D-116" value="&lt;font style=&quot;font-size: 14px;&quot;&gt;CONV，1*1，256&lt;/font&gt;" style="rounded=1;whiteSpace=wrap;html=1;align=left;fillColor=#dae8fc;strokeColor=#6c8ebf;glass=0;fontSize=14;container=0;shadow=1;" vertex="1" parent="1">
          <mxGeometry x="870" y="460" width="130" height="32" as="geometry" />
        </mxCell>
        <mxCell id="IvDMqbEkHvX700NU1U3D-117" value="&lt;font style=&quot;font-size: 14px;&quot;&gt;CONV，3*3，256&lt;/font&gt;" style="rounded=1;whiteSpace=wrap;html=1;align=left;fillColor=#dae8fc;strokeColor=#6c8ebf;glass=0;fontSize=14;container=0;shadow=1;" vertex="1" parent="1">
          <mxGeometry x="870" y="492" width="130" height="32" as="geometry" />
        </mxCell>
        <mxCell id="IvDMqbEkHvX700NU1U3D-118" value="&lt;font style=&quot;font-size: 14px;&quot;&gt;CONV，1*1，1024&lt;/font&gt;" style="rounded=1;whiteSpace=wrap;html=1;align=left;fillColor=#dae8fc;strokeColor=#6c8ebf;glass=0;fontSize=14;container=0;shadow=1;" vertex="1" parent="1">
          <mxGeometry x="870" y="524" width="130" height="32" as="geometry" />
        </mxCell>
        <mxCell id="IvDMqbEkHvX700NU1U3D-123" style="rounded=0;orthogonalLoop=1;jettySize=auto;html=1;exitX=0;exitY=0.5;exitDx=0;exitDy=0;entryX=1;entryY=0;entryDx=0;entryDy=0;endArrow=none;endFill=0;" edge="1" parent="1" source="IvDMqbEkHvX700NU1U3D-98" target="IvDMqbEkHvX700NU1U3D-107">
          <mxGeometry relative="1" as="geometry" />
        </mxCell>
        <mxCell id="IvDMqbEkHvX700NU1U3D-124" style="rounded=0;orthogonalLoop=1;jettySize=auto;html=1;entryX=1;entryY=1;entryDx=0;entryDy=0;exitX=0;exitY=0.75;exitDx=0;exitDy=0;endSize=0;startSize=0;" edge="1" parent="1" source="IvDMqbEkHvX700NU1U3D-98" target="IvDMqbEkHvX700NU1U3D-109">
          <mxGeometry relative="1" as="geometry" />
        </mxCell>
        <mxCell id="IvDMqbEkHvX700NU1U3D-125" style="rounded=0;orthogonalLoop=1;jettySize=auto;html=1;entryX=1;entryY=0.25;entryDx=0;entryDy=0;endArrow=none;endFill=0;" edge="1" parent="1" source="IvDMqbEkHvX700NU1U3D-67" target="IvDMqbEkHvX700NU1U3D-112">
          <mxGeometry relative="1" as="geometry" />
        </mxCell>
        <mxCell id="IvDMqbEkHvX700NU1U3D-126" style="rounded=0;orthogonalLoop=1;jettySize=auto;html=1;entryX=1;entryY=0.75;entryDx=0;entryDy=0;exitX=0;exitY=0.75;exitDx=0;exitDy=0;endArrow=none;endFill=0;" edge="1" parent="1" source="IvDMqbEkHvX700NU1U3D-67" target="IvDMqbEkHvX700NU1U3D-114">
          <mxGeometry relative="1" as="geometry" />
        </mxCell>
        <mxCell id="IvDMqbEkHvX700NU1U3D-127" style="rounded=0;orthogonalLoop=1;jettySize=auto;html=1;exitX=0;exitY=0.5;exitDx=0;exitDy=0;entryX=1;entryY=0;entryDx=0;entryDy=0;endArrow=none;endFill=0;" edge="1" parent="1" source="IvDMqbEkHvX700NU1U3D-72" target="IvDMqbEkHvX700NU1U3D-116">
          <mxGeometry relative="1" as="geometry" />
        </mxCell>
        <mxCell id="IvDMqbEkHvX700NU1U3D-128" style="rounded=0;orthogonalLoop=1;jettySize=auto;html=1;exitX=0;exitY=0.75;exitDx=0;exitDy=0;entryX=0.968;entryY=1.048;entryDx=0;entryDy=0;entryPerimeter=0;endArrow=none;endFill=0;" edge="1" parent="1" source="IvDMqbEkHvX700NU1U3D-72" target="IvDMqbEkHvX700NU1U3D-118">
          <mxGeometry relative="1" as="geometry" />
        </mxCell>
        <mxCell id="IvDMqbEkHvX700NU1U3D-129" style="rounded=0;orthogonalLoop=1;jettySize=auto;html=1;entryX=1;entryY=0.25;entryDx=0;entryDy=0;endArrow=none;endFill=0;" edge="1" parent="1" source="IvDMqbEkHvX700NU1U3D-79" target="IvDMqbEkHvX700NU1U3D-120">
          <mxGeometry relative="1" as="geometry" />
        </mxCell>
        <mxCell id="IvDMqbEkHvX700NU1U3D-130" style="rounded=0;orthogonalLoop=1;jettySize=auto;html=1;exitX=0;exitY=0.75;exitDx=0;exitDy=0;entryX=1;entryY=1;entryDx=0;entryDy=0;endArrow=none;endFill=0;" edge="1" parent="1" source="IvDMqbEkHvX700NU1U3D-79" target="IvDMqbEkHvX700NU1U3D-122">
          <mxGeometry relative="1" as="geometry" />
        </mxCell>
      </root>
    </mxGraphModel>
  </diagram>
</mxfile>
